<svg width="1584" height="396" viewBox="0 0 1584 396" fill="none" xmlns="http://www.w3.org/2000/svg">
<rect width="1584" height="396" fill="#F5F5F5"/>
<g id="Awesome banner" clip-path="url(#clip0_0_1)">
<rect width="1584" height="396" fill="url(#paint0_linear_0_1)"/>
<ellipse id="Ellipse 2" cx="323" cy="64" rx="285" ry="288" fill="url(#paint1_linear_0_1)" fill-opacity="0.1"/>
<g id="copyright">
<path d="M75.95 334.52L72.30 334.52L72.30 311.16L77.20 311.16L83.70 330.04Q83.60 329.02 83.50 327.62Q83.41 326.23 83.33 324.79Q83.25 323.35 83.25 322.23L83.25 311.16L86.90 311.16L86.90 334.52L82 334.52L75.57 315.64Q75.63 316.57 75.73 317.88Q75.82 319.19 75.89 320.57Q75.95 321.94 75.95 323.10L75.95 334.52M98.80 334.84Q96.46 334.84 94.67 333.96Q92.88 333.08 91.89 331.53Q90.90 329.98 90.90 327.93Q90.90 325.78 92.13 324.18Q93.36 322.58 95.34 322.17L95.34 322.10Q93.65 321.75 92.61 320.38Q91.57 319 91.57 317.11Q91.57 315.26 92.48 313.85Q93.39 312.44 95.02 311.64Q96.66 310.84 98.80 310.84Q100.94 310.84 102.59 311.64Q104.24 312.44 105.15 313.85Q106.06 315.26 106.06 317.11Q106.06 319 105.01 320.38Q103.95 321.75 102.26 322.10L102.26 322.17Q104.24 322.58 105.47 324.18Q106.70 325.78 106.70 327.93Q106.70 329.98 105.71 331.53Q104.72 333.08 102.93 333.96Q101.14 334.84 98.80 334.84M98.80 320.73Q100.30 320.73 101.23 319.82Q102.16 318.90 102.16 317.46Q102.16 315.99 101.23 315.08Q100.30 314.17 98.80 314.17Q97.30 314.17 96.37 315.08Q95.44 315.99 95.44 317.46Q95.44 318.90 96.37 319.82Q97.30 320.73 98.80 320.73M98.80 331.45Q100.56 331.45 101.68 330.42Q102.80 329.40 102.80 327.74Q102.80 326.04 101.68 325Q100.56 323.96 98.80 323.96Q97.04 323.96 95.92 325Q94.80 326.04 94.80 327.74Q94.80 329.40 95.92 330.42Q97.04 331.45 98.80 331.45M114.35 334.52L110.70 334.52L110.70 311.16L115.60 311.16L122.10 330.04Q122 329.02 121.90 327.62Q121.81 326.23 121.73 324.79Q121.65 323.35 121.65 322.23L121.65 311.16L125.30 311.16L125.30 334.52L120.40 334.52L113.97 315.64Q114.03 316.57 114.13 317.88Q114.22 319.19 114.29 320.57Q114.35 321.94 114.35 323.10" fill="white" fill-opacity="0.9"/>
<path d="M161.48 325.24L151.24 325.24L151.24 322.68L161.48 322.68" fill="white" fill-opacity="0.9"/>
<path d="M195.02 334.84Q191.82 334.84 189.96 333.05Q188.11 331.26 188.11 328.12L188.11 317.56Q188.11 314.42 189.96 312.63Q191.82 310.84 195.02 310.84Q198.15 310.84 200.01 312.65Q201.87 314.46 201.87 317.56L198.99 317.56Q198.99 315.58 197.95 314.50Q196.91 313.43 195.02 313.43Q193.13 313.43 192.06 314.50Q190.99 315.58 190.99 317.56L190.99 328.12Q190.99 330.10 192.06 331.18Q193.13 332.25 195.02 332.25Q196.91 332.25 197.95 331.18Q198.99 330.10 198.99 328.12L201.87 328.12Q201.87 331.22 200.01 333.03Q198.15 334.84 195.02 334.84" fill="white" fill-opacity="0.9"/>
<path d="M213.96 334.84Q210.83 334.84 209 333.02Q207.18 331.19 207.18 327.80L207.18 317.88Q207.18 314.49 209 312.66Q210.83 310.84 213.96 310.84Q217.10 310.84 218.92 312.66Q220.75 314.49 220.75 317.85L220.75 327.80Q220.75 331.19 218.92 333.02Q217.10 334.84 213.96 334.84M213.96 332.25Q215.85 332.25 216.86 331.18Q217.87 330.10 217.87 328.12L217.87 317.56Q217.87 315.58 216.86 314.50Q215.85 313.43 213.96 313.43Q212.11 313.43 211.08 314.50Q210.06 315.58 210.06 317.56L210.06 328.12Q210.06 330.10 211.08 331.18Q212.11 332.25 213.96 332.25" fill="white" fill-opacity="0.9"/>
<path d="M228.65 334.52L225.87 334.52L225.87 311.16L230.12 311.16L233.10 321.27L236.20 311.16L240.46 311.16L240.46 334.52L237.67 334.52L237.67 323.48Q237.67 321.91 237.72 319.88Q237.77 317.85 237.87 315.77Q237.96 313.69 238.09 312.02L234.31 324.09L231.82 324.09L228.20 312.31Q228.46 314.68 228.55 317.50Q228.65 320.31 228.65 323.48" fill="white" fill-opacity="0.9"/>
<path d="M247.85 334.52L245.07 334.52L245.07 311.16L249.32 311.16L252.30 321.27L255.40 311.16L259.66 311.16L259.66 334.52L256.87 334.52L256.87 323.48Q256.87 321.91 256.92 319.88Q256.97 317.85 257.07 315.77Q257.16 313.69 257.29 312.02L253.51 324.09L251.02 324.09L247.40 312.31Q247.66 314.68 247.75 317.50Q247.85 320.31 247.85 323.48" fill="white" fill-opacity="0.9"/>
<path d="M271.56 334.84Q268.30 334.84 266.57 333.03Q264.84 331.22 264.84 328.12L264.84 311.16L267.72 311.16L267.72 328.12Q267.72 330.04 268.67 331.16Q269.61 332.28 271.56 332.28Q273.48 332.28 274.44 331.16Q275.40 330.04 275.40 328.12L275.40 311.16L278.28 311.16L278.28 328.12Q278.28 331.26 276.57 333.05Q274.86 334.84 271.56 334.84" fill="white" fill-opacity="0.9"/>
<path d="M286.83 334.52L284.04 334.52L284.04 311.16L287.88 311.16L295.02 331.16Q294.95 330.36 294.87 329.19Q294.79 328.02 294.75 326.73Q294.70 325.43 294.70 324.28L294.70 311.16L297.48 311.16L297.48 334.52L293.64 334.52L286.54 314.52Q286.60 315.29 286.67 316.46Q286.73 317.62 286.78 318.92Q286.83 320.22 286.83 321.40" fill="white" fill-opacity="0.9"/>
<path d="M316.20 334.52L303.72 334.52L303.72 331.90L308.49 331.90L308.49 313.78L303.72 313.78L303.72 311.16L316.20 311.16L316.20 313.78L311.43 313.78L311.43 331.90L316.20 331.90" fill="white" fill-opacity="0.9"/>
<path d="M330.60 334.52L327.72 334.52L327.72 313.78L321.32 313.78L321.32 311.16L337 311.16L337 313.78L330.60 313.78" fill="white" fill-opacity="0.9"/>
<path d="M349.80 334.52L346.92 334.52L346.92 325.78L339.88 311.16L342.95 311.16L347.50 320.76Q347.88 321.56 348.11 322.12Q348.33 322.68 348.39 322.94Q348.46 322.68 348.70 322.12Q348.94 321.56 349.32 320.76L353.87 311.16L356.84 311.16L349.80 325.78" fill="white" fill-opacity="0.9"/>
<path d="M382.83 334.52L380.04 334.52L380.04 311.16L383.88 311.16L391.02 331.16Q390.95 330.36 390.87 329.19Q390.79 328.02 390.75 326.73Q390.70 325.43 390.70 324.28L390.70 311.16L393.48 311.16L393.48 334.52L389.64 334.52L382.54 314.52Q382.60 315.29 382.67 316.46Q382.73 317.62 382.78 318.92Q382.83 320.22 382.83 321.40" fill="white" fill-opacity="0.9"/>
<path d="M405.96 334.84Q402.83 334.84 401 333.02Q399.18 331.19 399.18 327.80L399.18 317.88Q399.18 314.49 401 312.66Q402.83 310.84 405.96 310.84Q409.10 310.84 410.92 312.66Q412.75 314.49 412.75 317.85L412.75 327.80Q412.75 331.19 410.92 333.02Q409.10 334.84 405.96 334.84M405.96 332.25Q407.85 332.25 408.86 331.18Q409.87 330.10 409.87 328.12L409.87 317.56Q409.87 315.58 408.86 314.50Q407.85 313.43 405.96 313.43Q404.11 313.43 403.08 314.50Q402.06 315.58 402.06 317.56L402.06 328.12Q402.06 330.10 403.08 331.18Q404.11 332.25 405.96 332.25" fill="white" fill-opacity="0.9"/>
<path d="M424.55 334.52L418.51 334.52L418.51 311.16L424.55 311.16Q426.83 311.16 428.47 312.02Q430.12 312.89 431.03 314.46Q431.95 316.02 431.95 318.17L431.95 327.48Q431.95 329.62 431.03 331.21Q430.12 332.79 428.47 333.66Q426.83 334.52 424.55 334.52M421.39 313.72L421.39 331.96L424.55 331.96Q426.67 331.96 427.87 330.78Q429.07 329.59 429.07 327.48L429.07 318.17Q429.07 316.09 427.87 314.90Q426.67 313.72 424.55 313.72" fill="white" fill-opacity="0.9"/>
<path d="M451.40 334.52L437.96 334.52L437.96 311.16L451.40 311.16L451.40 313.78L440.81 313.78L440.81 321.02L450.28 321.02L450.28 323.58L440.81 323.58L440.81 331.90L451.40 331.90" fill="white" fill-opacity="0.9"/>
<path d="M463.69 334.84Q460.30 334.84 458.28 333.05Q456.27 331.26 456.27 328.12L459.15 328.12Q459.15 330.07 460.39 331.18Q461.64 332.28 463.69 332.28Q465.67 332.28 466.86 331.13Q468.04 329.98 468.04 328.12Q468.04 326.71 467.29 325.67Q466.54 324.63 465.13 324.25L461.58 323.26Q459.37 322.62 458.11 320.97Q456.84 319.32 456.84 317.08Q456.84 315.22 457.67 313.82Q458.51 312.41 460.01 311.62Q461.51 310.84 463.47 310.84Q465.45 310.84 466.97 311.62Q468.49 312.41 469.35 313.80Q470.22 315.19 470.22 317.02L467.34 317.02Q467.34 315.42 466.25 314.41Q465.16 313.40 463.47 313.40Q461.77 313.40 460.71 314.41Q459.66 315.42 459.66 317.02Q459.66 318.30 460.35 319.21Q461.03 320.12 462.28 320.47L465.93 321.50Q468.27 322.14 469.56 323.91Q470.86 325.69 470.86 328.12Q470.86 331.19 468.91 333.02Q466.95 334.84 463.69 334.84" fill="white" fill-opacity="0.9"/>
</g>
<path d="M73.82 197.64L71.73 197.64L71.73 180.12L74.92 180.12L77.15 187.70L79.48 180.12L82.67 180.12L82.67 197.64L80.58 197.64L80.58 189.36Q80.58 188.18 80.62 186.66Q80.66 185.14 80.73 183.58Q80.80 182.02 80.90 180.77L78.06 189.82L76.19 189.82L73.48 180.98Q73.67 182.76 73.74 184.87Q73.82 186.98 73.82 189.36" fill="white" fill-opacity="0.7"/>
<path d="M91.60 197.88Q89.27 197.88 87.84 196.48Q86.42 195.07 86.42 192.60L86.42 189.48Q86.42 187.01 87.84 185.60Q89.27 184.20 91.60 184.20Q93.16 184.20 94.32 184.82Q95.49 185.45 96.14 186.58Q96.78 187.70 96.78 189.24L96.78 191.59L88.53 191.59L88.53 192.84Q88.53 194.30 89.37 195.16Q90.21 196.01 91.60 196.01Q92.80 196.01 93.58 195.54Q94.36 195.07 94.53 194.28L96.69 194.28Q96.47 195.94 95.08 196.91Q93.69 197.88 91.60 197.88M88.53 189.24L88.53 189.91L94.67 189.91L94.67 189.24Q94.67 187.68 93.87 186.83Q93.06 185.98 91.60 185.98Q90.14 185.98 89.33 186.83Q88.53 187.68 88.53 189.24" fill="white" fill-opacity="0.7"/>
<path d="M103.65 197.64L101.49 197.64L101.49 184.44L103.65 184.44L103.65 186.96L103.70 186.96Q103.86 185.69 104.78 184.94Q105.69 184.20 107.22 184.20Q109.29 184.20 110.40 185.44Q111.52 186.67 111.52 188.95L111.52 190.08L109.36 190.08L109.36 188.95Q109.36 186.07 106.55 186.07Q105.14 186.07 104.39 186.89Q103.65 187.70 103.65 189.24" fill="white" fill-opacity="0.7"/>
<path d="M120.59 197.88Q118.19 197.88 116.75 196.54Q115.31 195.19 115.31 192.84L115.31 189.24Q115.31 186.89 116.75 185.54Q118.19 184.20 120.59 184.20Q122.87 184.20 124.28 185.42Q125.68 186.65 125.75 188.76L123.59 188.76Q123.52 187.49 122.73 186.80Q121.94 186.12 120.59 186.12Q119.18 186.12 118.32 186.92Q117.47 187.73 117.47 189.22L117.47 192.84Q117.47 194.33 118.32 195.14Q119.18 195.96 120.59 195.96Q121.94 195.96 122.73 195.26Q123.52 194.57 123.59 193.32L125.75 193.32Q125.68 195.43 124.28 196.66Q122.87 197.88 120.59 197.88" fill="white" fill-opacity="0.7"/>
<path d="M134.78 197.88Q132.50 197.88 131.13 196.52Q129.76 195.17 129.76 192.84L129.76 184.44L131.92 184.44L131.92 192.84Q131.92 194.28 132.69 195.13Q133.46 195.98 134.78 195.98Q136.12 195.98 136.90 195.13Q137.68 194.28 137.68 192.84L137.68 184.44L139.84 184.44L139.84 192.84Q139.84 195.17 138.45 196.52Q137.06 197.88 134.78 197.88" fill="white" fill-opacity="0.7"/>
<path d="M146.85 197.64L144.69 197.64L144.69 184.44L146.85 184.44L146.85 186.96L146.90 186.96Q147.06 185.69 147.98 184.94Q148.89 184.20 150.42 184.20Q152.49 184.20 153.60 185.44Q154.72 186.67 154.72 188.95L154.72 190.08L152.56 190.08L152.56 188.95Q152.56 186.07 149.75 186.07Q148.34 186.07 147.59 186.89Q146.85 187.70 146.85 189.24" fill="white" fill-opacity="0.7"/>
<path d="M163.60 197.88Q161.27 197.88 159.84 196.48Q158.42 195.07 158.42 192.60L158.42 189.48Q158.42 187.01 159.84 185.60Q161.27 184.20 163.60 184.20Q165.16 184.20 166.32 184.82Q167.49 185.45 168.14 186.58Q168.78 187.70 168.78 189.24L168.78 191.59L160.53 191.59L160.53 192.84Q160.53 194.30 161.37 195.16Q162.21 196.01 163.60 196.01Q164.80 196.01 165.58 195.54Q166.36 195.07 166.53 194.28L168.69 194.28Q168.47 195.94 167.08 196.91Q165.69 197.88 163.60 197.88M160.53 189.24L160.53 189.91L166.67 189.91L166.67 189.24Q166.67 187.68 165.87 186.83Q165.06 185.98 163.60 185.98Q162.14 185.98 161.33 186.83Q160.53 187.68 160.53 189.24" fill="white" fill-opacity="0.7"/>
<path d="M189.57 201.96L187.41 201.96L187.41 184.44L189.57 184.44L189.57 186.96L189.59 186.96Q189.76 185.66 190.72 184.93Q191.68 184.20 193.17 184.20Q195.16 184.20 196.34 185.51Q197.51 186.82 197.51 189.10L197.51 192.96Q197.51 195.24 196.34 196.56Q195.16 197.88 193.17 197.88Q191.68 197.88 190.72 197.14Q189.76 196.39 189.59 195.12L189.52 195.12L189.57 198.12L189.57 201.96M192.45 196.01Q193.82 196.01 194.58 195.29Q195.35 194.57 195.35 192.96L195.35 189.12Q195.35 187.49 194.58 186.78Q193.82 186.07 192.45 186.07Q191.13 186.07 190.35 186.91Q189.57 187.75 189.57 189.24L189.57 192.84Q189.57 194.33 190.35 195.17Q191.13 196.01 192.45 196.01" fill="white" fill-opacity="0.7"/>
<path d="M206.78 197.88Q204.50 197.88 203.13 196.52Q201.76 195.17 201.76 192.84L201.76 184.44L203.92 184.44L203.92 192.84Q203.92 194.28 204.69 195.13Q205.46 195.98 206.78 195.98Q208.12 195.98 208.90 195.13Q209.68 194.28 209.68 192.84L209.68 184.44L211.84 184.44L211.84 192.84Q211.84 195.17 210.45 196.52Q209.06 197.88 206.78 197.88" fill="white" fill-opacity="0.7"/>
<path d="M221.73 197.83L220.67 197.83Q218.46 197.83 217.25 196.84Q216.04 195.84 216.04 194.02L218.20 194.02Q218.20 194.93 218.85 195.44Q219.50 195.96 220.67 195.96L221.73 195.96Q222.93 195.96 223.59 195.43Q224.25 194.90 224.25 193.94Q224.25 192.24 222.69 192.02L219.04 191.50Q217.70 191.30 216.95 190.38Q216.21 189.46 216.21 187.94Q216.21 186.22 217.40 185.23Q218.58 184.25 220.67 184.25L221.73 184.25Q223.65 184.25 224.86 185.20Q226.07 186.14 226.17 187.68L223.98 187.68Q223.94 186.98 223.32 186.53Q222.71 186.07 221.73 186.07L220.67 186.07Q219.57 186.07 218.94 186.58Q218.32 187.08 218.32 187.94Q218.32 189.34 219.59 189.53LNaN 190.01Q226.36 190.49 226.36 193.94Q226.36 195.79 225.15 196.81Q223.94 197.83 221.73 197.83" fill="white" fill-opacity="0.7"/>
<path d="M232.77 197.64L230.61 197.64L230.61 180.12L232.77 180.12L232.77 186.96L232.79 186.96Q232.96 185.64 233.87 184.92Q234.78 184.20 236.30 184.20Q238.29 184.20 239.46 185.42Q240.64 186.65 240.64 188.76L240.64 197.64L238.48 197.64L238.48 189.12Q238.48 187.63 237.72 186.83Q236.97 186.02 235.67 186.02Q234.33 186.02 233.55 186.86Q232.77 187.70 232.77 189.24" fill="white" fill-opacity="0.7"/>
<path d="MNaN 197.88Q247.67 197.88 246.24 196.48Q244.82 195.07 244.82 192.60L244.82 189.48Q244.82 187.01 246.24 185.60Q247.67 184.20 NaN 184.20Q251.56 184.20 252.72 184.82Q253.89 185.45 254.54 186.58Q255.18 187.70 255.18 189.24L255.18 191.59L246.93 191.59L246.93 192.84Q246.93 194.30 247.77 195.16Q248.61 196.01 NaN 196.01Q251.20 196.01 251.98 195.54Q252.76 195.07 252.93 194.28L255.09 194.28Q254.87 195.94 253.48 196.91Q252.09 197.88 NaN 197.88M246.93 189.24L246.93 189.91L253.07 189.91L253.07 189.24Q253.07 187.68 252.27 186.83Q251.46 185.98 NaN 185.98Q248.54 185.98 247.73 186.83Q246.93 187.68 246.93 189.24" fill="white" fill-opacity="0.7"/>
<path d="M264.93 197.83L263.87 197.83Q261.66 197.83 260.45 196.84Q259.24 195.84 259.24 194.02L261.40 194.02Q261.40 194.93 262.05 195.44Q262.70 195.96 263.87 195.96L264.93 195.96Q266.13 195.96 266.79 195.43Q267.45 194.90 267.45 193.94Q267.45 192.24 265.89 192.02L262.24 191.50Q260.90 191.30 260.15 190.38Q259.41 189.46 259.41 187.94Q259.41 186.22 260.60 185.23Q261.78 184.25 263.87 184.25L264.93 184.25Q266.85 184.25 268.06 185.20Q269.27 186.14 269.37 187.68L267.18 187.68Q267.14 186.98 266.52 186.53Q265.91 186.07 264.93 186.07L263.87 186.07Q262.77 186.07 262.14 186.58Q261.52 187.08 261.52 187.94Q261.52 189.34 262.79 189.53L266.20 190.01Q269.56 190.49 269.56 193.94Q269.56 195.79 268.35 196.81Q267.14 197.83 264.93 197.83" fill="white" fill-opacity="0.7"/>
<path d="M290.85 197.64L288.69 197.64L288.69 184.44L290.85 184.44L290.85 186.96L290.90 186.96Q291.06 185.69 291.98 184.94Q292.89 184.20 294.42 184.20Q296.49 184.20 297.60 185.44Q298.72 186.67 298.72 188.95L298.72 190.08L296.56 190.08L296.56 188.95Q296.56 186.07 293.75 186.07Q292.34 186.07 291.59 186.89Q290.85 187.70 290.85 189.24" fill="white" fill-opacity="0.7"/>
<path d="M307.60 197.88Q305.27 197.88 303.84 196.48Q302.42 195.07 302.42 192.60L302.42 189.48Q302.42 187.01 303.84 185.60Q305.27 184.20 307.60 184.20Q309.16 184.20 310.32 184.82Q311.49 185.45 312.14 186.58Q312.78 187.70 312.78 189.24L312.78 191.59L304.53 191.59L304.53 192.84Q304.53 194.30 305.37 195.16Q306.21 196.01 307.60 196.01Q308.80 196.01 309.58 195.54Q310.36 195.07 310.53 194.28L312.69 194.28Q312.47 195.94 311.08 196.91Q309.69 197.88 307.60 197.88M304.53 189.24L304.53 189.91L310.67 189.91L310.67 189.24Q310.67 187.68 309.87 186.83Q309.06 185.98 307.60 185.98Q306.14 185.98 305.33 186.83Q304.53 187.68 304.53 189.24" fill="white" fill-opacity="0.7"/>
<path d="M320.85 197.88Q318.81 197.88 317.61 196.74Q316.41 195.60 316.41 193.75Q316.41 192.53 316.96 191.62Q317.51 190.70 318.50 190.19Q319.48 189.67 320.75 189.67L324.83 189.67L324.83 188.64Q324.83 186.07 322.02 186.07Q320.78 186.07 320.01 186.53Q319.24 186.98 319.19 187.80L317.03 187.80Q317.15 186.24 318.48 185.22Q319.82 184.20 322.02 184.20Q324.42 184.20 325.71 185.35Q326.99 186.50 326.99 188.57L326.99 197.64L324.86 197.64L324.86 195.24L324.81 195.24Q324.62 196.46 323.58 197.17Q322.55 197.88 320.85 197.88M321.38 196.06Q322.96 196.06 323.90 195.29Q324.83 194.52 324.83 193.20L324.83 191.35L320.99 191.35Q319.94 191.35 319.28 191.99Q318.62 192.62 318.62 193.68Q318.62 194.78 319.35 195.42Q320.08 196.06 321.38 196.06" fill="white" fill-opacity="0.7"/>
<path d="M342.40 197.64L338.32 197.64Q336.57 197.64 335.52 196.62Q334.48 195.60 334.48 193.92L334.48 182.09L329.92 182.09L329.92 180.12L336.64 180.12L336.64 193.92Q336.64 194.74 337.10 195.20Q337.55 195.67 338.32 195.67L342.40 195.67" fill="white" fill-opacity="0.7"/>
<path d="M354.64 190.68L346.96 190.68L346.96 188.76L354.64 188.76" fill="white" fill-opacity="0.7"/>
<path d="M370.36 197.64L366.52 197.64Q364.89 197.64 363.90 196.69Q362.92 195.74 362.92 194.16L362.92 186.41L359.13 186.41L359.13 184.44L362.92 184.44L362.92 180.72L365.08 180.72L365.08 184.44L370.48 184.44L370.48 186.41L365.08 186.41L365.08 194.16Q365.08 194.83 365.48 195.25Q365.87 195.67 366.52 195.67L370.36 195.67" fill="white" fill-opacity="0.7"/>
<path d="M385.72 197.64L374.44 197.64L374.44 195.67L379.12 195.67L379.12 186.41L374.92 186.41L374.92 184.44L381.28 184.44L381.28 195.67L385.72 195.67L385.72 197.64M379.96 182.06Q379.17 182.06 378.71 181.66Q378.26 181.25 378.26 180.55Q378.26 179.83 378.71 179.41Q379.17 178.99 379.96 178.99Q380.75 178.99 381.21 179.41Q381.66 179.83 381.66 180.55Q381.66 181.25 381.21 181.66Q380.75 182.06 379.96 182.06" fill="white" fill-opacity="0.7"/>
<path d="M390.26 197.64L388.24 197.64L388.24 184.44L390.11 184.44L390.11 186.19L390.16 186.19Q390.28 185.30 390.87 184.75Q391.46 184.20 392.37 184.20Q393.23 184.20 393.83 184.70Q394.43 185.21 394.70 186.07L394.72 186.07Q394.89 185.21 395.48 184.70Q396.06 184.20 396.98 184.20Q398.25 184.20 399 185.15Q399.76 186.10 399.76 187.61L399.76 197.64L397.74 197.64L397.74 187.58Q397.74 186.79 397.36 186.32Q396.98 185.86 396.30 185.86Q395.66 185.86 395.27 186.31Q394.89 186.77 394.89 187.56L394.89 197.64L393.11 197.64L393.11 187.58Q393.11 186.79 392.73 186.32Q392.34 185.86 391.70 185.86Q391.02 185.86 390.64 186.31Q390.26 186.77 390.26 187.56" fill="white" fill-opacity="0.7"/>
<path d="M408.40 197.88Q406.07 197.88 404.64 196.48Q403.22 195.07 403.22 192.60L403.22 189.48Q403.22 187.01 404.64 185.60Q406.07 184.20 408.40 184.20Q409.96 184.20 411.12 184.82Q412.29 185.45 412.94 186.58Q413.58 187.70 413.58 189.24L413.58 191.59L405.33 191.59L405.33 192.84Q405.33 194.30 406.17 195.16Q407.01 196.01 408.40 196.01Q409.60 196.01 410.38 195.54Q411.16 195.07 411.33 194.28L413.49 194.28Q413.27 195.94 411.88 196.91Q410.49 197.88 408.40 197.88M405.33 189.24L405.33 189.91L411.47 189.91L411.47 189.24Q411.47 187.68 410.67 186.83Q409.86 185.98 408.40 185.98Q406.94 185.98 406.13 186.83Q405.33 187.68 405.33 189.24" fill="white" fill-opacity="0.7"/>
<path d="M436.43 197.88Q434.46 197.88 433.28 196.56Q432.09 195.24 432.09 192.98L432.09 189.12Q432.09 186.84 433.26 185.52Q434.44 184.20 436.43 184.20Q437.92 184.20 438.89 184.94Q439.86 185.69 440.06 186.96L440.08 186.96L440.03 183.96L440.03 180.12L442.19 180.12L442.19 197.64L440.03 197.64L440.03 195.12L440.01 195.12Q439.84 196.42 438.88 197.15Q437.92 197.88 436.43 197.88M437.15 196.01Q438.50 196.01 439.26 195.17Q440.03 194.33 440.03 192.84L440.03 189.24Q440.03 187.75 439.26 186.91Q438.50 186.07 437.15 186.07Q435.78 186.07 435.02 186.78Q434.25 187.49 434.25 189.12L434.25 192.96Q434.25 194.57 435.02 195.29Q435.78 196.01 437.15 196.01" fill="white" fill-opacity="0.7"/>
<path d="M450.45 197.88Q448.41 197.88 447.21 196.74Q446.01 195.60 446.01 193.75Q446.01 192.53 446.56 191.62Q447.11 190.70 448.10 190.19Q449.08 189.67 450.35 189.67L454.43 189.67L454.43 188.64Q454.43 186.07 451.62 186.07Q450.38 186.07 449.61 186.53Q448.84 186.98 448.79 187.80L446.63 187.80Q446.75 186.24 448.08 185.22Q449.42 184.20 451.62 184.20Q454.02 184.20 455.31 185.35Q456.59 186.50 456.59 188.57L456.59 197.64L454.46 197.64L454.46 195.24L454.41 195.24Q454.22 196.46 453.18 197.17Q452.15 197.88 450.45 197.88M450.98 196.06Q452.56 196.06 453.50 195.29Q454.43 194.52 454.43 193.20L454.43 191.35L450.59 191.35Q449.54 191.35 448.88 191.99Q448.22 192.62 448.22 193.68Q448.22 194.78 448.95 195.42Q449.68 196.06 450.98 196.06" fill="white" fill-opacity="0.7"/>
<path d="M471.16 197.64L467.32 197.64Q465.69 197.64 464.70 196.69Q463.72 195.74 463.72 194.16L463.72 186.41L459.93 186.41L459.93 184.44L463.72 184.44L463.72 180.72L465.88 180.72L465.88 184.44L471.28 184.44L471.28 186.41L465.88 186.41L465.88 194.16Q465.88 194.83 466.28 195.25Q466.67 195.67 467.32 195.67L471.16 195.67" fill="white" fill-opacity="0.7"/>
<path d="M479.25 197.88Q477.21 197.88 476.01 196.74Q474.81 195.60 474.81 193.75Q474.81 192.53 475.36 191.62Q475.91 190.70 476.90 190.19Q477.88 189.67 479.15 189.67L483.23 189.67L483.23 188.64Q483.23 186.07 480.42 186.07Q479.18 186.07 478.41 186.53Q477.64 186.98 477.59 187.80L475.43 187.80Q475.55 186.24 476.88 185.22Q478.22 184.20 480.42 184.20Q482.82 184.20 484.11 185.35Q485.39 186.50 485.39 188.57L485.39 197.64L483.26 197.64L483.26 195.24L483.21 195.24Q483.02 196.46 481.98 197.17Q480.95 197.88 479.25 197.88M479.78 196.06Q481.36 196.06 482.30 195.29Q483.23 194.52 483.23 193.20L483.23 191.35L479.39 191.35Q478.34 191.35 477.68 191.99Q477.02 192.62 477.02 193.68Q477.02 194.78 477.75 195.42Q478.48 196.06 479.78 196.06" fill="white" fill-opacity="0.7"/>
<path d="M509.18 197.88Q506.90 197.88 505.53 196.52Q504.16 195.17 504.16 192.84L504.16 184.44L506.32 184.44L506.32 192.84Q506.32 194.28 507.09 195.13Q507.86 195.98 509.18 195.98Q510.52 195.98 511.30 195.13Q512.08 194.28 512.08 192.84L512.08 184.44L514.24 184.44L514.24 192.84Q514.24 195.17 512.85 196.52Q511.46 197.88 509.18 197.88" fill="white" fill-opacity="0.7"/>
<path d="M520.77 201.96L518.61 201.96L518.61 184.44L520.77 184.44L520.77 186.96L520.79 186.96Q520.96 185.66 521.92 184.93Q522.88 184.20 524.37 184.20Q526.36 184.20 527.54 185.51Q528.71 186.82 528.71 189.10L528.71 192.96Q528.71 195.24 527.54 196.56Q526.36 197.88 524.37 197.88Q522.88 197.88 521.92 197.14Q520.96 196.39 520.79 195.12L520.72 195.12L520.77 198.12L520.77 201.96M523.65 196.01Q525.02 196.01 525.78 195.29Q526.55 194.57 526.55 192.96L526.55 189.12Q526.55 187.49 525.78 186.78Q525.02 186.07 523.65 186.07Q522.33 186.07 521.55 186.91Q520.77 187.75 520.77 189.24L520.77 192.84Q520.77 194.33 521.55 195.17Q522.33 196.01 523.65 196.01" fill="white" fill-opacity="0.7"/>
<path d="M537.23 197.88Q535.26 197.88 534.08 196.56Q532.89 195.24 532.89 192.98L532.89 189.12Q532.89 186.84 534.06 185.52Q535.24 184.20 537.23 184.20Q538.72 184.20 539.69 184.94Q540.66 185.69 540.86 186.96L540.88 186.96L540.83 183.96L540.83 180.12L542.99 180.12L542.99 197.64L540.83 197.64L540.83 195.12L540.81 195.12Q540.64 196.42 539.68 197.15Q538.72 197.88 537.23 197.88M537.95 196.01Q539.30 196.01 540.06 195.17Q540.83 194.33 540.83 192.84L540.83 189.24Q540.83 187.75 540.06 186.91Q539.30 186.07 537.95 186.07Q536.58 186.07 535.82 186.78Q535.05 187.49 535.05 189.12L535.05 192.96Q535.05 194.57 535.82 195.29Q536.58 196.01 537.95 196.01" fill="white" fill-opacity="0.7"/>
<path d="M551.25 197.88Q549.21 197.88 548.01 196.74Q546.81 195.60 546.81 193.75Q546.81 192.53 547.36 191.62Q547.91 190.70 548.90 190.19Q549.88 189.67 551.15 189.67L555.23 189.67L555.23 188.64Q555.23 186.07 552.42 186.07Q551.18 186.07 550.41 186.53Q549.64 186.98 549.59 187.80L547.43 187.80Q547.55 186.24 548.88 185.22Q550.22 184.20 552.42 184.20Q554.82 184.20 556.11 185.35Q557.39 186.50 557.39 188.57L557.39 197.64L555.26 197.64L555.26 195.24L555.21 195.24Q555.02 196.46 553.98 197.17Q552.95 197.88 551.25 197.88M551.78 196.06Q553.36 196.06 554.30 195.29Q555.23 194.52 555.23 193.20L555.23 191.35L551.39 191.35Q550.34 191.35 549.68 191.99Q549.02 192.62 549.02 193.68Q549.02 194.78 549.75 195.42Q550.48 196.06 551.78 196.06" fill="white" fill-opacity="0.7"/>
<path d="M571.96 197.64L568.12 197.64Q566.49 197.64 565.50 196.69Q564.52 195.74 564.52 194.16L564.52 186.41L560.73 186.41L560.73 184.44L564.52 184.44L564.52 180.72L566.68 180.72L566.68 184.44L572.08 184.44L572.08 186.41L566.68 186.41L566.68 194.16Q566.68 194.83 567.08 195.25Q567.47 195.67 568.12 195.67L571.96 195.67" fill="white" fill-opacity="0.7"/>
<path d="M581.20 197.88Q578.87 197.88 577.44 196.48Q576.02 195.07 576.02 192.60L576.02 189.48Q576.02 187.01 577.44 185.60Q578.87 184.20 581.20 184.20Q582.76 184.20 583.92 184.82Q585.09 185.45 585.74 186.58Q586.38 187.70 586.38 189.24L586.38 191.59L578.13 191.59L578.13 192.84Q578.13 194.30 578.97 195.16Q579.81 196.01 581.20 196.01Q582.40 196.01 583.18 195.54Q583.96 195.07 584.13 194.28L586.29 194.28Q586.07 195.94 584.68 196.91Q583.29 197.88 581.20 197.88M578.13 189.24L578.13 189.91L584.27 189.91L584.27 189.24Q584.27 187.68 583.47 186.83Q582.66 185.98 581.20 185.98Q579.74 185.98 578.93 186.83Q578.13 187.68 578.13 189.24" fill="white" fill-opacity="0.7"/>
<path d="M596.13 197.83L595.07 197.83Q592.86 197.83 591.65 196.84Q590.44 195.84 590.44 194.02L592.60 194.02Q592.60 194.93 593.25 195.44Q593.90 195.96 595.07 195.96L596.13 195.96Q597.33 195.96 597.99 195.43Q598.65 194.90 598.65 193.94Q598.65 192.24 597.09 192.02L593.44 191.50Q592.10 191.30 591.35 190.38Q590.61 189.46 590.61 187.94Q590.61 186.22 591.80 185.23Q592.98 184.25 595.07 184.25L596.13 184.25Q598.05 184.25 599.26 185.20Q600.47 186.14 600.57 187.68L598.38 187.68Q598.34 186.98 597.72 186.53Q597.11 186.07 596.13 186.07L595.07 186.07Q593.97 186.07 593.34 186.58Q592.72 187.08 592.72 187.94Q592.72 189.34 593.99 189.53L597.40 190.01Q600.76 190.49 600.76 193.94Q600.76 195.79 599.55 196.81Q598.34 197.83 596.13 197.83" fill="white" fill-opacity="0.7"/>
<path d="M629.56 197.64L625.72 197.64Q624.09 197.64 623.10 196.69Q622.12 195.74 622.12 194.16L622.12 186.41L618.33 186.41L618.33 184.44L622.12 184.44L622.12 180.72L624.28 180.72L624.28 184.44L629.68 184.44L629.68 186.41L624.28 186.41L624.28 194.16Q624.28 194.83 624.68 195.25Q625.07 195.67 625.72 195.67L629.56 195.67" fill="white" fill-opacity="0.7"/>
<path d="M638.80 197.83Q636.42 197.83 635.02 196.44Q633.62 195.05 633.62 192.55L633.62 189.53Q633.62 187.01 635.01 185.63Q636.40 184.25 638.80 184.25Q641.20 184.25 642.59 185.63Q643.98 187.01 643.98 189.53L643.98 192.55Q643.98 195.05 642.58 196.44Q641.18 197.83 638.80 197.83M638.80 195.91Q640.22 195.91 641.02 195.12Q641.82 194.33 641.82 192.79L641.82 189.29Q641.82 187.75 641.02 186.96Q640.22 186.17 638.80 186.17Q637.41 186.17 636.59 186.96Q635.78 187.75 635.78 189.29L635.78 192.79Q635.78 194.33 636.59 195.12Q637.41 195.91 638.80 195.91" fill="white" fill-opacity="0.7"/>
<path d="M664.79 197.64L662.63 197.64L662.63 180.12L664.79 180.12L664.79 187.61L670.41 187.61L670.41 180.12L672.57 180.12L672.57 197.64L670.41 197.64L670.41 189.58L664.79 189.58" fill="white" fill-opacity="0.7"/>
<path d="M683.08 197.64L680.92 197.64L680.92 182.09L676.12 182.09L676.12 180.12L687.88 180.12L687.88 182.09L683.08 182.09" fill="white" fill-opacity="0.7"/>
<path d="M697.48 197.64L695.32 197.64L695.32 182.09L690.52 182.09L690.52 180.12L702.28 180.12L702.28 182.09L697.48 182.09" fill="white" fill-opacity="0.7"/>
<path d="M707.97 197.64L705.81 197.64L705.81 180.12L711.45 180.12Q713.90 180.12 715.35 181.52Q716.80 182.93 716.80 185.28Q716.80 187.63 715.35 189.04Q713.90 190.44 711.45 190.44L707.97 190.44L707.97 197.64M707.97 182.06L707.97 188.50L711.45 188.50Q712.86 188.50 713.72 187.62Q714.57 186.74 714.57 185.28Q714.57 183.79 713.72 182.93Q712.86 182.06 711.45 182.06" fill="white" fill-opacity="0.7"/>
<path d="M739.79 197.88Q737.39 197.88 735.95 196.54Q734.51 195.19 734.51 192.84L734.51 189.24Q734.51 186.89 735.95 185.54Q737.39 184.20 739.79 184.20Q742.07 184.20 743.48 185.42Q744.88 186.65 744.95 188.76L742.79 188.76Q742.72 187.49 741.93 186.80Q741.14 186.12 739.79 186.12Q738.38 186.12 737.52 186.92Q736.67 187.73 736.67 189.22L736.67 192.84Q736.67 194.33 737.52 195.14Q738.38 195.96 739.79 195.96Q741.14 195.96 741.93 195.26Q742.72 194.57 742.79 193.32L744.95 193.32Q744.88 195.43 743.48 196.66Q742.07 197.88 739.79 197.88" fill="white" fill-opacity="0.7"/>
<path d="M760 197.64L755.92 197.64Q754.17 197.64 753.12 196.62Q752.08 195.60 752.08 193.92L752.08 182.09L747.52 182.09L747.52 180.12L754.24 180.12L754.24 193.92Q754.24 194.74 754.70 195.20Q755.15 195.67 755.92 195.67L760 195.67" fill="white" fill-opacity="0.7"/>
<path d="M774.52 197.64L763.24 197.64L763.24 195.67L767.92 195.67L767.92 186.41L763.72 186.41L763.72 184.44L770.08 184.44L770.08 195.67L774.52 195.67L774.52 197.64M768.76 182.06Q767.97 182.06 767.51 181.66Q767.06 181.25 767.06 180.55Q767.06 179.83 767.51 179.41Q767.97 178.99 768.76 178.99Q769.55 178.99 770.01 179.41Q770.46 179.83 770.46 180.55Q770.46 181.25 770.01 181.66Q769.55 182.06 768.76 182.06" fill="white" fill-opacity="0.7"/>
<path d="M782.80 197.88Q780.47 197.88 779.04 196.48Q777.62 195.07 777.62 192.60L777.62 189.48Q777.62 187.01 779.04 185.60Q780.47 184.20 782.80 184.20Q784.36 184.20 785.52 184.82Q786.69 185.45 787.34 186.58Q787.98 187.70 787.98 189.24L787.98 191.59L779.73 191.59L779.73 192.84Q779.73 194.30 780.57 195.16Q781.41 196.01 782.80 196.01Q784 196.01 784.78 195.54Q785.56 195.07 785.73 194.28L787.89 194.28Q787.67 195.94 786.28 196.91Q784.89 197.88 782.80 197.88M779.73 189.24L779.73 189.91L785.87 189.91L785.87 189.24Q785.87 187.68 785.07 186.83Q784.26 185.98 782.80 185.98Q781.34 185.98 780.53 186.83Q779.73 187.68 779.73 189.24" fill="white" fill-opacity="0.7"/>
<path d="M794.37 197.64L792.21 197.64L792.21 184.44L794.37 184.44L794.37 186.96L794.39 186.96Q794.56 185.64 795.47 184.92Q796.38 184.20 797.90 184.20Q799.89 184.20 801.06 185.42Q802.24 186.65 802.24 188.76L802.24 197.64L800.08 197.64L800.08 189.14Q800.08 187.63 799.32 186.83Q798.57 186.02 797.27 186.02Q795.93 186.02 795.15 186.86Q794.37 187.70 794.37 189.24" fill="white" fill-opacity="0.7"/>
<path d="M816.76 197.64L812.92 197.64Q811.29 197.64 810.30 196.69Q809.32 195.74 809.32 194.16L809.32 186.41L805.53 186.41L805.53 184.44L809.32 184.44L809.32 180.72L811.48 180.72L811.48 184.44L816.88 184.44L816.88 186.41L811.48 186.41L811.48 194.16Q811.48 194.83 811.88 195.25Q812.27 195.67 812.92 195.67L816.76 195.67" fill="white" fill-opacity="0.7"/>
<path d="M826.53 197.83L825.47 197.83Q823.26 197.83 822.05 196.84Q820.84 195.84 820.84 194.02L823 194.02Q823 194.93 823.65 195.44Q824.30 195.96 825.47 195.96L826.53 195.96Q827.73 195.96 828.39 195.43Q829.05 194.90 829.05 193.94Q829.05 192.24 827.49 192.02L823.84 191.50Q822.50 191.30 821.75 190.38Q821.01 189.46 821.01 187.94Q821.01 186.22 822.20 185.23Q823.38 184.25 825.47 184.25L826.53 184.25Q828.45 184.25 829.66 185.20Q830.87 186.14 830.97 187.68L828.78 187.68Q828.74 186.98 828.12 186.53Q827.51 186.07 826.53 186.07L825.47 186.07Q824.37 186.07 823.74 186.58Q823.12 187.08 823.12 187.94Q823.12 189.34 824.39 189.53L827.80 190.01Q831.16 190.49 831.16 193.94Q831.16 195.79 829.95 196.81Q828.74 197.83 826.53 197.83" fill="white" fill-opacity="0.7"/>
<path d="M854.80 197.88Q852.47 197.88 851.04 196.48Q849.62 195.07 849.62 192.60L849.62 189.48Q849.62 187.01 851.04 185.60Q852.47 184.20 854.80 184.20Q856.36 184.20 857.52 184.82Q858.69 185.45 859.34 186.58Q859.98 187.70 859.98 189.24L859.98 191.59L851.73 191.59L851.73 192.84Q851.73 194.30 852.57 195.16Q853.41 196.01 854.80 196.01Q856 196.01 856.78 195.54Q857.56 195.07 857.73 194.28L859.89 194.28Q859.67 195.94 858.28 196.91Q856.89 197.88 854.80 197.88M851.73 189.24L851.73 189.91L857.87 189.91L857.87 189.24Q857.87 187.68 857.07 186.83Q856.26 185.98 854.80 185.98Q853.34 185.98 852.53 186.83Q851.73 187.68 851.73 189.24" fill="white" fill-opacity="0.7"/>
<path d="M869.32 197.64L867.16 197.64L867.16 188.21L863.32 188.21L863.32 186.24L867.16 186.24L867.16 183.48Q867.16 181.92 868.14 181.02Q869.13 180.12 870.86 180.12L874.72 180.12L874.72 182.09L870.86 182.09Q869.32 182.09 869.32 183.48L869.32 186.24L874.72 186.24L874.72 188.21L869.32 188.21" fill="white" fill-opacity="0.7"/>
<path d="M883.72 197.64L881.56 197.64L881.56 188.21L877.72 188.21L877.72 186.24L881.56 186.24L881.56 183.48Q881.56 181.92 882.54 181.02Q883.53 180.12 885.26 180.12L889.12 180.12L889.12 182.09L885.26 182.09Q883.72 182.09 883.72 183.48L883.72 186.24L889.12 186.24L889.12 188.21L883.72 188.21" fill="white" fill-opacity="0.7"/>
<path d="M904.12 197.64L892.84 197.64L892.84 195.67L897.52 195.67L897.52 186.41L893.32 186.41L893.32 184.44L899.68 184.44L899.68 195.67L904.12 195.67L904.12 197.64M898.36 182.06Q897.57 182.06 897.11 181.66Q896.66 181.25 896.66 180.55Q896.66 179.83 897.11 179.41Q897.57 178.99 898.36 178.99Q899.15 178.99 899.61 179.41Q900.06 179.83 900.06 180.55Q900.06 181.25 899.61 181.66Q899.15 182.06 898.36 182.06" fill="white" fill-opacity="0.7"/>
<path d="M912.59 197.88Q910.19 197.88 908.75 196.54Q907.31 195.19 907.31 192.84L907.31 189.24Q907.31 186.89 908.75 185.54Q910.19 184.20 912.59 184.20Q914.87 184.20 916.28 185.42Q917.68 186.65 917.75 188.76L915.59 188.76Q915.52 187.49 914.73 186.80Q913.94 186.12 912.59 186.12Q911.18 186.12 910.32 186.92Q909.47 187.73 909.47 189.22L909.47 192.84Q909.47 194.33 910.32 195.14Q911.18 195.96 912.59 195.96Q913.94 195.96 914.73 195.26Q915.52 194.57 915.59 193.32L917.75 193.32Q917.68 195.43 916.28 196.66Q914.87 197.88 912.59 197.88" fill="white" fill-opacity="0.7"/>
<path d="M932.92 197.64L921.64 197.64L921.64 195.67L926.32 195.67L926.32 186.41L922.12 186.41L922.12 184.44L928.48 184.44L928.48 195.67L932.92 195.67L932.92 197.64M927.16 182.06Q926.37 182.06 925.91 181.66Q925.46 181.25 925.46 180.55Q925.46 179.83 925.91 179.41Q926.37 178.99 927.16 178.99Q927.95 178.99 928.41 179.41Q928.86 179.83 928.86 180.55Q928.86 181.25 928.41 181.66Q927.95 182.06 927.16 182.06" fill="white" fill-opacity="0.7"/>
<path d="M941.20 197.88Q938.87 197.88 937.44 196.48Q936.02 195.07 936.02 192.60L936.02 189.48Q936.02 187.01 937.44 185.60Q938.87 184.20 941.20 184.20Q942.76 184.20 943.92 184.82Q945.09 185.45 945.74 186.58Q946.38 187.70 946.38 189.24L946.38 191.59L938.13 191.59L938.13 192.84Q938.13 194.30 938.97 195.16Q939.81 196.01 941.20 196.01Q942.40 196.01 943.18 195.54Q943.96 195.07 944.13 194.28L946.29 194.28Q946.07 195.94 944.68 196.91Q943.29 197.88 941.20 197.88M938.13 189.24L938.13 189.91L944.27 189.91L944.27 189.24Q944.27 187.68 943.47 186.83Q942.66 185.98 941.20 185.98Q939.74 185.98 938.93 186.83Q938.13 187.68 938.13 189.24" fill="white" fill-opacity="0.7"/>
<path d="M952.77 197.64L950.61 197.64L950.61 184.44L952.77 184.44L952.77 186.96L952.79 186.96Q952.96 185.64 953.87 184.92Q954.78 184.20 956.30 184.20Q958.29 184.20 959.46 185.42Q960.64 186.65 960.64 188.76L960.64 197.64L958.48 197.64L958.48 189.14Q958.48 187.63 957.72 186.83Q956.97 186.02 955.67 186.02Q954.33 186.02 953.55 186.86Q952.77 187.70 952.77 189.24" fill="white" fill-opacity="0.7"/>
<path d="M975.16 197.64L971.32 197.64Q969.69 197.64 968.70 196.69Q967.72 195.74 967.72 194.16L967.72 186.41L963.93 186.41L963.93 184.44L967.72 184.44L967.72 180.72L969.88 180.72L969.88 184.44L975.28 184.44L975.28 186.41L969.88 186.41L969.88 194.16Q969.88 194.83 970.28 195.25Q970.67 195.67 971.32 195.67L975.16 195.67" fill="white" fill-opacity="0.7"/>
<path d="M990.40 197.64L986.32 197.64Q984.57 197.64 983.52 196.62Q982.48 195.60 982.48 193.92L982.48 182.09L977.92 182.09L977.92 180.12L984.64 180.12L984.64 193.92Q984.64 194.74 985.10 195.20Q985.55 195.67 986.32 195.67L990.40 195.67" fill="white" fill-opacity="0.7"/>
<path d="M998.13 201.96L995.87 201.96L997.82 196.82L992.90 184.44L995.22 184.44L998.34 192.60Q998.54 193.08 998.70 193.61Q998.87 194.14 998.94 194.52Q999.02 194.14 999.18 193.61Q999.35 193.08 999.52 192.60L1002.42 184.44L1004.70 184.44" fill="white" fill-opacity="0.7"/>
<path d="M1013.20 197.88Q1012.31 197.88 1011.77 197.35Q1011.23 196.82 1011.23 195.98Q1011.23 195.10 1011.77 194.54Q1012.31 193.99 1013.20 193.99Q1014.09 193.99 1014.63 194.54Q1015.17 195.10 1015.17 195.98Q1015.17 196.82 1014.63 197.35Q1014.09 197.88 1013.20 197.88" fill="white" fill-opacity="0.7"/>
<path d="M77.55 136.06L68.53 136.06L68.53 65.98L81.97 65.98L90.61 96.22L99.63 65.98L113.17 65.98L113.17 136.06L104.05 136.06L104.05 103.90Q104.05 98.81 104.24 92.62Q104.43 86.43 104.77 80.24Q105.10 74.04 105.49 69.05L94.54 104.96L86.48 104.96L75.92 69.92Q76.78 76.92 77.17 85.52Q77.55 94.11 77.55 103.90L77.55 136.06M169.71 136.06L128.91 136.06L128.91 65.98L169.71 65.98L169.71 74.52L138.32 74.52L138.32 95.36L166.35 95.36L166.35 103.61L138.32 103.61L138.32 127.52L169.71 127.52L169.71 136.06M195.15 136.06L185.74 136.06L185.74 65.98L207.44 65.98Q213.87 65.98 218.67 68.52Q223.47 71.07 226.16 75.63Q228.85 80.19 228.85 86.33Q228.85 93.44 225.25 98.52Q221.65 103.61 215.70 105.72L229.81 136.06L219.34 136.06L206 106.78L195.15 106.78L195.15 136.06M195.15 74.43L195.15 98.33L207.44 98.33Q212.82 98.33 215.94 95.07Q219.06 91.80 219.06 86.43Q219.06 80.96 215.89 77.69Q212.72 74.43 207.44 74.43L195.15 74.43M264.37 137.02Q254.67 137.02 248.96 131.60Q243.25 126.17 243.25 116.67L243.25 85.28Q243.25 75.87 248.96 70.44Q254.67 65.02 264.37 65.02Q273.97 65.02 279.68 70.49Q285.39 75.96 285.39 85.28L275.89 85.28Q275.89 79.61 272.82 76.54Q269.74 73.47 264.37 73.47Q258.90 73.47 255.82 76.54Q252.75 79.61 252.75 85.28L252.75 116.67Q252.75 122.43 255.82 125.50Q258.90 128.57 264.37 128.57Q269.74 128.57 272.82 125.50Q275.89 122.43 275.89 116.67L285.39 116.67Q285.39 126.08 279.68 131.55Q273.97 137.02 264.37 137.02M321.20 137.02Q311.31 137.02 305.98 131.55Q300.66 126.08 300.66 116.67L300.66 65.98L310.16 65.98L310.16 116.67Q310.16 122.24 312.90 125.40Q315.63 128.57 321.20 128.57Q326.67 128.57 329.50 125.40Q332.34 122.24 332.34 116.67L332.34 65.98L341.84 65.98L341.84 116.67Q341.84 126.17 336.51 131.60Q331.18 137.02 321.20 137.02M367.95 136.06L358.54 136.06L358.54 65.98L380.24 65.98Q386.67 65.98 391.47 68.52Q396.27 71.07 398.96 75.63Q401.65 80.19 401.65 86.33Q401.65 93.44 398.05 98.52Q394.45 103.61 388.50 105.72L402.61 136.06L392.14 136.06L378.80 106.78L367.95 106.78L367.95 136.06M367.95 74.43L367.95 98.33L380.24 98.33Q385.62 98.33 388.74 95.07Q391.86 91.80 391.86 86.43Q391.86 80.96 388.69 77.69Q385.52 74.43 380.24 74.43L367.95 74.43M457.71 136.06L416.91 136.06L416.91 65.98L457.71 65.98L457.71 74.52L426.32 74.52L426.32 95.36L454.35 95.36L454.35 103.61L426.32 103.61L426.32 127.52L457.71 127.52" fill="url(#paint2_linear_0_1)"/>
<g id="Group 1">
<rect id="Rectangle 1" x="26" y="168" width="12" height="184" rx="5" fill="url(#paint3_linear_0_1)" fill-opacity="0.9"/>
</g>
<g id="Group 1_2">
<rect id="Rectangle 2" x="26" y="38" width="12" height="119" rx="5" fill="url(#paint4_linear_0_1)" fill-opacity="0.9"/>
</g>
<ellipse id="Ellipse 1" cx="148.5" cy="573" rx="215.5" ry="214" fill="url(#paint5_linear_0_1)" fill-opacity="0.4"/>
<rect id="Rectangle 3" x="1229" y="48" width="300" height="300" rx="25" fill="#FFFBFB" fill-opacity="0.9"/>
<g id="placeholder-logo"><g transform="translate(1229,48) translate(0.0,119.2) scale(0.5000)"><style type="text/css">
	.st0{fill:url(#SVGID_1_);}
	.st1{fill:url(#SVGID_2_);}
	.st2{fill:#495466;}
</style>
<linearGradient id="SVGID_1_" gradientUnits="userSpaceOnUse" x1="21.5778" y1="257.4968" x2="126.3956" y2="257.4968" gradientTransform="matrix(1 0 0 1 0 -194.96)">
	<stop  offset="0" style="stop-color:#76C8DD"/>
	<stop  offset="1" style="stop-color:#2AB3D7"/>
</linearGradient>
<path class="st0" d="M74,114.9c-28.9,0-52.4-23.5-52.4-52.4S45.1,10.1,74,10.1s52.4,23.5,52.4,52.4S102.9,114.9,74,114.9z M74,14.6
	c-26.4,0-48,21.5-48,48s21.5,48,48,48s48-21.5,48-48S100.5,14.6,74,14.6z"/>
<linearGradient id="SVGID_2_" gradientUnits="userSpaceOnUse" x1="32.8602" y1="256.9509" x2="115.1131" y2="256.9509" gradientTransform="matrix(1 0 0 1 0 -194.96)">
	<stop  offset="0" style="stop-color:#76C8DD"/>
	<stop  offset="1" style="stop-color:#2AB3D7"/>
</linearGradient>
<path class="st1" d="M74,20.8c-22.7,0-41.1,18.4-41.1,41.1c0,7.1,1.8,13.8,4.9,19.6c1.1-0.8,2.3-1.6,3.6-2.4
	C63.9,65.7,83.9,54.6,97.1,34c0,0-0.9,23.3-14.3,34.1c-3,2.4-5.5,4.3-7.9,5.8c6.8-3.6,12.7-7.6,17.3-13.1c0,0-0.4,15.6-11.9,22.6
	c-4.3,2.5-7.9,4-11.5,5.1c6.6-1.5,10.8-3.3,14.3-5.6c-2.9,9.7-9.2,14.8-19.1,16.2c-3.6,0.4-6.6-0.4-9.8-1.1
	c5.9,3.3,12.7,5.1,19.9,5.1c22.7,0,41.1-18.4,41.1-41.1S96.8,20.8,74,20.8z"/>
<g>
	<path class="st2" d="M218.1,42c-1.2-1.4-2.1-2.3-2.5-2.8l-10.9-11.4c-2.1-2.3-4.5-3.6-7.4-3.6c-2.8,0-5.5,1.2-7.7,3.6l-8.2,8.7
		l-8.2-8.7c-2-2.3-4.4-3.6-7.4-3.6c-2.8,0-5.2,1.2-7.4,3.6l-10.9,11.4c-0.5,0.5-1.3,1.3-2.4,2.5c-1.1,1.2-2.1,2.5-2.9,3.8
		s-1.2,3.1-1.3,5v40.9c0,2.8,0.9,5.1,2.8,6.7c1.9,1.6,4.1,2.4,6.6,2.4s4.8-0.8,6.6-2.4c1.9-1.6,2.8-3.9,2.8-6.7V50.1
		c0-3.4,2.8-6.2,6.2-6.2c3.4,0,6.2,2.8,6.2,6.2v41.4c0,2.9,0.9,5.2,2.8,6.8c1.9,1.7,4.1,2.5,6.6,2.5c2.5,0,4.7-0.8,6.6-2.5
		c1.9-1.7,2.8-3.9,2.8-6.8V50.2c0-3.5,2.8-6.3,6.3-6.3c3.5,0,6.3,2.8,6.3,6.3v41.3c0,2.8,0.9,5.1,2.8,6.7c1.9,1.6,4.1,2.4,6.6,2.4
		s4.8-0.8,6.6-2.4c1.9-1.6,2.8-3.9,2.8-6.7V50.6c-0.1-1.7-0.6-3.1-1.2-4.4C220.3,44.8,219.3,43.4,218.1,42L218.1,42z M268,43.7
		c2.5,0,4.7-0.9,6.6-2.8c1.9-1.9,2.8-4.1,2.8-6.7c0-2.5-0.9-4.7-2.8-6.5c-1.8-1.8-4-2.8-6.6-2.8h-25.8c-2.8,0-5.4,0.7-7.8,2.1
		c-2.4,1.5-4.3,3.3-5.8,5.8c-1.5,2.4-2.1,5.1-2.1,7.9v5c0,4.1,0.7,7.6,2,10.1c1.3,2.6,3.8,4.5,7.4,5.8c-3.8,1.3-6.3,3.3-7.5,6
		c-1.2,2.8-1.8,6.3-1.8,10.7v5.8c0,2.8,0.7,5.5,2.1,7.9c1.5,2.4,3.3,4.4,5.8,5.8s5,2.1,7.8,2.1H268c2.5-0.1,4.8-1.1,6.6-2.9
		c1.8-1.8,2.8-3.9,2.8-6.4c0-2.6-0.9-4.9-2.8-6.7c-1.8-1.8-4-2.8-6.6-2.8h-22.8v-9h21c2.5,0,4.7-0.9,6.6-2.8
		c1.9-1.9,2.8-4.1,2.8-6.6c0-2.6-0.9-4.9-2.8-6.7s-4-2.8-6.6-2.8h-21v-9.9H268z M322.2,29.5c-3.3-3.1-7.1-4.6-11.3-4.6h-21
		c-2.6,0-4.9,0.9-6.7,2.8c-1.8,1.8-2.8,4.1-2.8,6.7v56.6c0,2.5,0.9,4.8,2.8,6.6c1.8,1.8,4.1,2.8,6.7,2.8c2.5,0,4.7-0.9,6.6-2.8
		c1.8-1.8,2.7-4,2.7-6.6V63.3l18.3,22.3v5.2c0,2.5,0.9,4.7,2.7,6.6c1.8,1.9,4,2.8,6.6,2.8c2.5,0,4.7-0.9,6.4-2.8
		c1.8-1.8,2.7-4,2.7-6.6v-5.5c0-3.5-0.7-6.6-2.1-9.1c-1.4-2.5-3.7-4.9-6.9-6.8c6.3-3.1,9.5-8.3,9.5-15.4v-4.2c0-4.4-1.7-8.2-5-11.6
		L322.2,29.5z M308.7,61.7h-9.5v-8.9c0-5.1,4.1-9.2,9.2-9.2c5.1,0,9.2,4.1,9.2,9.2C317.5,57.7,313.6,61.7,308.7,61.7z M382.4,43.7
		c2.5,0,4.7-0.9,6.6-2.8c1.9-1.9,2.8-4.1,2.8-6.6c0-2.5-0.9-4.8-2.8-6.6c-1.9-1.9-4.1-2.8-6.6-2.8h-26c-2.8,0-5.5,0.7-7.9,2.1
		c-2.4,1.5-4.4,3.3-5.8,5.8c-1.5,2.4-2.1,5.1-2.1,7.9v43.4c0,2.8,0.7,5.5,2.1,7.9c1.5,2.4,3.3,4.4,5.8,5.8c2.4,1.5,5.1,2.1,7.9,2.1
		h25.8c2.5,0,4.8-0.9,6.6-2.7c1.9-1.8,2.8-4,2.8-6.6s-0.9-4.8-2.8-6.6c-1.9-1.8-4.1-2.8-6.6-2.8h-22.9V43.7H382.4z M440.7,24.7
		c-2.5,0-4.8,0.9-6.6,2.8c-1.9,1.9-2.8,4.1-2.8,6.6v38.6c0,4.8-3.9,8.7-8.7,8.7c-4.8,0-8.7-3.9-8.7-8.7V34.6c0-2.8-0.9-5.2-2.7-7.1
		c-1.8-1.9-4.1-2.8-6.8-2.8c-2.7,0-4.9,0.9-6.8,2.8c-1.8,1.9-2.7,4.1-2.7,6.8v48.3c0,3.5,0.8,6.6,2.5,9.2c1.7,2.6,3.9,4.7,6.7,6.2
		s6,2.2,9.5,2.2c4.1,0,7.6-1.1,10.6-3.2c2.9-2.1,5-5.2,6.3-9.3c0.1-0.4,0.3-0.5,0.4-0.5c0.1,0,0.2,0.1,0.2,0.5V91
		c0,2.6,0.9,4.9,2.8,6.7c1.9,1.8,4.1,2.8,6.6,2.8c2.6,0,4.9-0.9,6.8-2.8c1.9-1.8,2.8-4.1,2.8-6.7V34.1c0-2.5-0.9-4.6-2.5-6.4
		C445.9,25.9,443.3,24.7,440.7,24.7L440.7,24.7z M496.1,29.5c-3.3-3.1-7.1-4.6-11.3-4.6h-21c-2.6,0-4.9,0.9-6.7,2.8
		c-1.8,1.8-2.8,4.1-2.8,6.7v56.6c0,2.5,0.9,4.8,2.8,6.6c1.8,1.8,4.1,2.8,6.7,2.8c2.5,0,4.7-0.9,6.6-2.8c1.8-1.8,2.7-4,2.7-6.6V63.3
		l18.3,22.3v5.2c0,2.5,0.9,4.7,2.7,6.6c1.8,1.9,4,2.8,6.6,2.8c2.5,0,4.7-0.9,6.4-2.8c1.8-1.8,2.7-4,2.7-6.6v-5.5
		c0-3.5-0.7-6.6-2.1-9.1c-1.4-2.5-3.7-4.9-6.9-6.8c6.3-3.1,9.5-8.3,9.5-15.4v-4.2c0-4.4-1.7-8.2-5-11.6
		C505.2,38.3,496.1,29.5,496.1,29.5z M482.6,61.7h-9.5v-8.9c0-5.1,4.1-9.2,9.2-9.2s9.2,4.1,9.2,9.2
		C491.5,57.7,487.5,61.7,482.6,61.7z M568.4,57.2c9.2-4.8,10-17.3,10-17.3c-9.2,10-22.9,14.5-38.3,20c-3.6,1.3-5.8,0.8-7,0.5V43.7
		h22.8c2.5,0,4.7-0.9,6.6-2.8c1.9-1.9,2.8-4.1,2.8-6.7c0-2.5-0.9-4.7-2.8-6.5s-4-2.8-6.6-2.8H530c-2.8,0-5.4,0.7-7.8,2.1
		c-2.4,1.5-4.3,3.3-5.8,5.8c-1.5,2.4-2.1,5.1-2.1,7.9v5c0,4.1,0.7,7.6,2,10.1c1.3,2.6,3.8,4.5,7.4,5.8c-3.8,1.3-6.3,3.3-7.5,6
		c-1.2,2.8-1.8,6.3-1.8,10.7v5.8c0,2.8,0.7,5.5,2.1,7.9c1.5,2.4,3.3,4.4,5.8,5.8s5,2.1,7.8,2.1h25.8c2.5-0.1,4.8-1.1,6.6-2.9
		c1.8-1.8,2.8-3.9,2.8-6.4c0-2.6-0.9-4.9-2.8-6.7c-1.8-1.8-4-2.8-6.6-2.8h-22.8v-7.1c9-1.7,16.3-2.1,22.1-2c6.7-0.1,11-2.3,13.1-7.3
		c-2.3,1-5.2,1.7-9.8,2c2.4-0.3,4.9-0.8,7.8-1.9c7.9-2.8,8.3-11.2,8.3-11.2c-3.1,2.5-7.2,4.4-11.8,5.8
		C564.5,59,566.3,58.2,568.4,57.2z"/>
</g></g></g>
</g>
<defs>
<linearGradient id="paint0_linear_0_1" x1="0" y1="198" x2="1584" y2="198" gradientUnits="userSpaceOnUse">
<stop stop-color="#3D052C"/>
<stop offset="1"/>
</linearGradient>
<linearGradient id="paint1_linear_0_1" x1="323" y1="-224" x2="323" y2="352" gradientUnits="userSpaceOnUse">
<stop stop-color="#28F6F2" stop-opacity="0.4"/>
<stop offset="1" stop-color="#17908E" stop-opacity="0.7"/>
</linearGradient>
<linearGradient id="paint2_linear_0_1" x1="148.5" y1="38" x2="148.5" y2="140" gradientUnits="userSpaceOnUse">
<stop stop-color="white"/>
<stop offset="1" stop-color="#999999"/>
</linearGradient>
<linearGradient id="paint3_linear_0_1" x1="38" y1="260" x2="26" y2="260" gradientUnits="userSpaceOnUse">
<stop stop-color="#D9D9D9"/>
<stop offset="1" stop-color="#737373"/>
</linearGradient>
<linearGradient id="paint4_linear_0_1" x1="38" y1="97.5" x2="26" y2="97.5" gradientUnits="userSpaceOnUse">
<stop stop-color="#D9D9D9"/>
<stop offset="1" stop-color="#737373"/>
</linearGradient>
<linearGradient id="paint5_linear_0_1" x1="27.5" y1="434.5" x2="148.5" y2="787" gradientUnits="userSpaceOnUse">
<stop stop-color="#2E21BC"/>
<stop offset="1" stop-color="#150F56"/>
</linearGradient>
<clipPath id="clip0_0_1">
<rect width="1584" height="396" fill="white"/>
</clipPath>
</defs>
</svg>
